<svg width="32" height="32" viewBox="0 0 32 32" fill="none" xmlns="http://www.w3.org/2000/svg">
<g clip-path="url(#clip0_1994_5541)">
<path d="M3.51183 10.8248C2.68902 10.8248 1.92895 10.2845 1.51789 9.40737L0.308578 6.82976C-0.102859 5.95218 -0.102859 4.87212 0.308578 3.99545L1.51795 1.41731C1.92896 0.540261 2.68902 0 3.51183 0H5.93058C6.7534 0 7.51346 0.540261 7.92484 1.41739L9.13421 3.99553C9.54521 4.87219 9.54521 5.95225 9.13421 6.82984L7.92484 9.40744C7.5134 10.2846 6.7534 10.8248 5.93058 10.8248L3.51183 10.8248Z" fill="#231815"/>
<path d="M26.0698 10.8248C25.247 10.8248 24.4866 10.2845 24.0752 9.40737L22.8658 6.82976C22.4548 5.95218 22.4548 4.87212 22.8658 3.99545L24.0752 1.41731C24.4866 0.540261 25.247 0 26.0698 0H28.4882C29.311 0 30.071 0.540261 30.4821 1.41739L31.6914 3.99553C32.1028 4.87219 32.1028 5.95225 31.6914 6.82984L30.4821 9.40744C30.0711 10.2846 29.311 10.8248 28.4882 10.8248L26.0698 10.8248Z" fill="#231815"/>
<path d="M15.3268 3.04486H10.5372C9.56478 3.04486 8.65697 3.64212 8.11816 4.63795L2.93128 14.2145C2.61284 14.8024 2.44296 15.4925 2.44296 16.1995V25.2211C2.44296 26.4458 2.95159 27.5848 3.79121 28.2415L7.88316 31.4418C8.34891 31.8064 8.88966 32 9.44153 32H15.3268H15.909V3.04486H15.3268Z" fill="#F1F2F1"/>
<path d="M29.0688 14.2145L23.8819 4.63795C23.343 3.6422 22.4349 3.04486 21.4628 3.04486H16.6732H15.909V32H16.6732H22.5582C23.1104 32 23.6515 31.8064 24.1169 31.4418L28.2089 28.2415C29.0485 27.5848 29.5575 26.4458 29.5575 25.2211V16.1995C29.5575 15.4924 29.3872 14.8024 29.0688 14.2145Z" fill="#DDDDDE"/>
<path d="M16 22.7923V15.8113H13.78C12.7727 15.8113 11.8752 16.5377 11.5427 17.6216L9.77378 23.3864C9.59466 23.9699 9.59659 24.6059 9.77878 25.1882L10.793 28.4276C11.1298 29.503 12.0233 30.2214 13.0257 30.2214H16V28.2858V22.7923Z" fill="#DCE1E1"/>
<path d="M22.226 23.3864L20.4575 17.6216C20.1245 16.5377 19.2275 15.8113 18.2202 15.8113H16V22.7923V28.2858V30.2214H18.9748C19.9764 30.2214 20.8697 29.503 21.2068 28.4276L22.2206 25.1882C22.4035 24.6059 22.4051 23.9699 22.226 23.3864Z" fill="#D3D3D3"/>
<path d="M16.5056 27.0238C17.738 27.0238 18.7376 25.7934 18.7376 24.2761C18.7376 22.7589 17.738 21.529 16.5056 21.529H16V27.0238H16.5056Z" fill="#3E3A39"/>
<path d="M13.2625 24.2762C13.2625 25.7934 14.2614 27.0239 15.4945 27.0239H16V21.529H15.4945C14.2614 21.529 13.2625 22.7589 13.2625 24.2762Z" fill="#3E3A39"/>
<path d="M8.81354 10.9807C8.97735 10.4673 9.37954 10.1295 9.82848 10.1295H12.3712C12.6785 10.1295 12.9717 10.2896 13.1787 10.5694C13.385 10.8501 13.4864 11.2252 13.4566 11.6015L12.9633 17.8524C12.9426 18.1162 12.8588 18.3659 12.7225 18.5707L10.6945 21.6293C10.4875 21.9416 10.1771 22.1225 9.84991 22.1225H7.66316C7.27391 22.1225 6.91416 21.8667 6.71897 21.4516L5.71628 19.3155C5.50347 18.8624 5.52453 18.2985 5.76985 17.8708L7.59879 14.6808C7.64929 14.5927 7.69104 14.498 7.72316 14.3973L8.81354 10.9807Z" fill="#231815"/>
<path d="M23.1866 10.9807C23.0227 10.4673 22.6194 10.1295 22.1716 10.1295H19.6285C19.3212 10.1295 19.0281 10.2896 18.8214 10.5694C18.6147 10.8501 18.5137 11.2252 18.5435 11.6015L19.0368 17.8524C19.0575 18.1162 19.1413 18.3659 19.2772 18.5707L21.3052 21.6293C21.5122 21.9416 21.8226 22.1225 22.1502 22.1225H24.3367C24.7262 22.1225 25.0861 21.8667 25.2808 21.4516L26.2839 19.3155C26.4967 18.8624 26.4756 18.2985 26.2303 17.8708L24.4006 14.6808C24.3508 14.5927 24.3091 14.498 24.2774 14.3973L23.1866 10.9807Z" fill="#231815"/>
<path d="M19.1731 28.7342H12.827V29.5232H19.1731V28.7342Z" fill="#B5B5B5"/>
</g>
<defs>
<clipPath id="clip0_1994_5541">
<rect width="32" height="32" fill="white"/>
</clipPath>
</defs>
</svg>
